<svg viewBox="0 0 100 100" fill="none" xmlns="http://www.w3.org/2000/svg">
  <defs>
    <linearGradient id="bubbleGrad" x1="10" y1="10" x2="90" y2="90">
      <stop offset="0%" stop-color="#00d4a4"/>
      <stop offset="100%" stop-color="#00a884"/>
    </linearGradient>
  </defs>
  <path d="M50 8C26.8 8 8 24.5 8 45c0 11.5 5.8 21.8 15 28.5L18 88l17-9c4.6 1.6 9.6 2.5 15 2.5 23.2 0 42-16.5 42-37.5S73.2 8 50 8z" fill="url(#bubbleGrad)" opacity="0.95"/>
  <rect x="30" y="30" width="28" height="3" rx="1.5" fill="white" opacity="0.9"/>
  <rect x="30" y="38" width="22" height="3" rx="1.5" fill="white" opacity="0.6"/>
  <rect x="30" y="46" width="25" height="3" rx="1.5" fill="white" opacity="0.4"/>
  <circle cx="62" cy="56" r="12" stroke="white" stroke-width="3.5" fill="none" opacity="0.95"/>
  <line x1="71" y1="65" x2="80" y2="74" stroke="white" stroke-width="3.5" stroke-linecap="round" opacity="0.95"/>
</svg>
