<svg viewBox="0 0 360 100" fill="none" xmlns="http://www.w3.org/2000/svg">
  <defs>
    <linearGradient id="bubbleGrad" x1="10" y1="10" x2="90" y2="90">
      <stop offset="0%" stop-color="#25d366"/>
      <stop offset="100%" stop-color="#075e54"/>
    </linearGradient>
  </defs>
  <!-- Chat bubble with search -->
  <path d="M50 8C26.8 8 8 24.5 8 45c0 11.5 5.8 21.8 15 28.5L18 88l17-9c4.6 1.6 9.6 2.5 15 2.5 23.2 0 42-16.5 42-37.5S73.2 8 50 8z" fill="url(#bubbleGrad)"/>
  <rect x="30" y="30" width="28" height="3" rx="1.5" fill="white" opacity="0.9"/>
  <rect x="30" y="38" width="22" height="3" rx="1.5" fill="white" opacity="0.6"/>
  <rect x="30" y="46" width="25" height="3" rx="1.5" fill="white" opacity="0.4"/>
  <circle cx="62" cy="56" r="12" stroke="white" stroke-width="3.5" fill="none" opacity="0.95"/>
  <line x1="71" y1="65" x2="80" y2="74" stroke="white" stroke-width="3.5" stroke-linecap="round" opacity="0.95"/>
  <!-- Text -->
  <text x="108" y="58" font-family="Arial, Helvetica, sans-serif" font-weight="700" font-size="42" letter-spacing="-1">
    <tspan fill="#075e54">Whats</tspan><tspan fill="#1a1a1a">Arch</tspan>
  </text>
  <text x="110" y="78" font-family="Arial, Helvetica, sans-serif" font-weight="400" font-size="11" fill="#6b7280" letter-spacing="2.5">SEARCH YOUR CONVERSATIONS</text>
</svg>
